<?xml version="1.0"?>
<svg width="235" height="106.07" xmlns="http://www.w3.org/2000/svg" xmlns:svg="http://www.w3.org/2000/svg" preserveAspectRatio="xMidYMid meet" style="vector-effect: non-scaling-stroke;">
 <title>logo</title>
 <metadata style="vector-effect: non-scaling-stroke;">Created by potrace 1.15, written by Peter Selinger 2001-2017</metadata>
 <g class="layer">
  <title>Layer 1</title>
  <g fill="#000000" id="svg_1" opacity="0.75" transform="translate(0 932) scale(0.1 -0.1)">
   <path d="m1201.365796,9291.469733c-3.782044,-0.428217 -5.590848,-1.070543 -4.110918,-1.391706c36.01164,-8.671399 35.847204,-8.671399 47.357774,-7.922019c32.394033,2.141086 34.367273,2.034032 80.08068,-2.462249c24.50107,-2.462249 91.755686,-8.992562 149.637409,-14.559386c57.881723,-5.673878 119.381054,-11.66892 136.482472,-13.381789c17.265855,-1.712869 46.04228,-4.603335 64.130318,-6.423259c18.088038,-1.712869 52.948622,-5.138607 77.285255,-7.493802c116.421193,-11.347757 190.746588,-18.62745 225.278298,-21.946134c20.883463,-2.034032 49.988761,-4.817444 64.952502,-6.316204c14.963741,-1.49876 50.153198,-4.924498 78.107439,-7.493802c28.118678,-2.676358 53.441932,-5.138607 56.401793,-5.45977c3.946481,-0.535272 5.261975,-0.214109 5.261975,0.963489c0,0.856434 -1.315494,1.819923 -2.795424,2.141086c-3.124298,0.535272 -64.623628,6.851476 -121.354295,12.311246c-72.352154,7.065585 -191.733208,18.841559 -268.031843,26.442415c-44.233476,4.389227 -128.58951,12.739463 -187.457854,18.62745c-58.703907,5.887987 -150.459593,14.987604 -203.901525,20.233265c-53.277495,5.352716 -108.528231,10.598377 -122.505352,11.775974c-28.776425,2.355195 -64.952502,3.425738 -74.818705,2.355195z" fill="#007f00" id="svg_2"/>
   <path d="m1187.388675,9286.866397c0,-2.676358 -3.124298,-30.617533 -12.332754,-112.728189c-6.741905,-58.879871 -6.906342,-60.806849 -14.799304,-128.465173c-3.288734,-27.620012 -7.399652,-64.018478 -9.044019,-80.826005c-3.453171,-31.04575 -11.839443,-105.341442 -14.799304,-129.535716c-1.47993,-11.561866 -12.9905,-112.299972 -15.621488,-136.494246c-0.657747,-4.71039 -2.137677,-14.131169 -3.288734,-20.875591c-1.315494,-6.744422 -3.124298,-19.805048 -4.110918,-28.904664c-0.98662,-9.099616 -3.124298,-28.369392 -4.933101,-42.821724c-3.782044,-29.868153 -15.785925,-135.423703 -17.430292,-151.48185c-1.973241,-21.624971 4.110918,-36.398466 18.416912,-43.999322c6.248595,-3.425738 35.02502,-12.525354 36.50495,-11.66892c0.328873,0.214109 -0.98662,1.391706 -2.959861,2.676358c-9.208456,5.995041 -10.852823,14.880549 -7.564089,40.359475c4.439791,32.758619 10.52395,84.572906 15.785925,131.997965c2.795424,24.408383 6.084158,52.88483 7.399652,63.162043c1.315494,10.277214 3.617608,29.54699 4.933101,42.821724c1.47993,13.274735 4.768665,42.179398 7.399652,64.232587c2.630987,22.053188 6.413032,53.848318 8.221836,70.655845c1.973241,16.807527 5.590848,47.639168 8.221836,68.514759c2.630987,20.982645 6.413032,52.028395 8.221836,69.050031c1.808804,17.12869 5.097538,46.461571 7.399652,65.30313c2.302114,18.841559 5.919722,50.636689 8.221836,70.655845c2.302114,20.019156 6.741905,57.381111 9.866203,82.967091c3.124298,25.58598 6.906342,56.952893 8.386272,69.585302c1.315494,12.632409 2.959861,26.442415 3.453171,30.617533c0.822184,7.600856 0.822184,7.600856 -3.782044,8.778453c-23.350013,5.673878 -37.327134,8.778453 -39.300375,8.778453c-1.47993,0 -2.466551,-0.963489 -2.466551,-2.355195z" fill="#007f00" id="svg_3"/>
   <path d="m1248.230259,9280.443139c-5.755285,-0.535272 -10.688386,-1.070543 -10.852823,-1.177597c-0.328873,-0.214109 -5.097538,-37.576063 -6.413032,-51.064906c-1.151057,-11.347757 -7.892962,-67.230107 -13.154937,-109.730669c-2.137677,-17.663961 -4.768665,-40.038312 -5.755285,-49.780255c-0.98662,-9.741942 -3.617608,-32.330402 -5.755285,-50.315526c-2.137677,-17.985124 -5.097538,-43.46405 -6.577469,-56.738785c-1.47993,-13.274735 -5.097538,-44.855756 -8.221836,-70.120574c-5.919722,-48.067386 -16.114798,-134.674323 -23.02114,-196.979932c-2.302114,-20.019156 -5.590848,-48.388549 -7.399652,-63.162043c-1.808804,-14.666441 -4.439791,-37.361954 -5.755285,-50.315526c-2.302114,-22.481405 -11.01726,-95.813608 -16.608108,-139.170604c-3.782044,-30.29637 -1.47993,-36.612574 15.950361,-42.71467c7.892962,-2.890466 9.372893,-2.997521 22.692266,-2.462249c8.550709,0.321163 26.145437,2.462249 44.562349,5.352716c41.273615,6.637367 65.281375,9.848997 106.06168,14.238223c43.904603,4.817444 51.304255,5.995041 149.144099,23.33784c44.562349,7.922019 95.866604,16.914581 113.954643,19.912102c18.088038,3.104575 60.677147,10.598377 94.55111,16.700472c33.873963,5.995041 76.463072,13.488843 94.55111,16.486364c28.776425,4.817444 69.721167,11.883029 137.304656,23.766057c10.359513,1.819923 19.567969,3.639847 20.390152,4.068064c0.657747,0.535272 -3.946481,14.345278 -10.359513,30.831642c-11.01726,28.369392 -24.172197,55.989405 -48.673267,102.986247c-6.084158,11.454811 -20.390152,39.181878 -32.065159,61.556229c-11.51057,22.374351 -31.078539,59.736305 -43.411292,83.074145c-21.376773,40.573584 -22.52783,42.821724 -22.692266,51.707232c-0.164437,5.031553 0.328873,9.634888 1.151057,10.17016c2.302114,1.49876 29.269735,5.45977 36.669387,5.45977c7.564089,0 51.468691,-4.496281 73.174338,-7.386747c33.051779,-4.496281 49.988761,-9.206671 59.52609,-16.486364c7.235215,-5.45977 11.839443,-11.990083 36.50495,-50.957852c11.346133,-17.985124 33.380653,-52.777775 48.837704,-77.186158c15.621488,-24.408383 33.051779,-52.028395 38.807064,-61.235066c5.755285,-9.313725 10.688386,-16.700472 11.01726,-16.486364c0.328873,0.214109 2.466551,11.66892 4.768665,25.371872c2.137677,13.810006 5.755285,34.471488 8.057399,45.926299c2.302114,11.454811 7.070779,39.181878 10.688386,61.556229c3.617608,22.374351 8.057399,47.639168 9.866203,56.203513c1.808804,8.564345 5.755285,31.473967 9.044019,50.850798c3.124298,19.483885 8.386272,49.352037 11.51057,66.373673c3.124298,17.12869 8.057399,44.748702 10.688386,61.556229c2.795424,16.807527 6.741905,40.359475 9.044019,52.456612c2.137677,12.097137 6.248595,34.685597 8.879583,50.315526c2.795424,15.629929 7.235215,41.322964 10.03064,57.167002c2.795424,15.736984 4.768665,28.904664 4.439791,29.118773c-0.328873,0.214109 -18.252475,2.141086 -39.958121,4.175118c-21.541209,2.034032 -56.730666,5.45977 -77.943002,7.600856c-21.212336,2.034032 -53.113059,5.138607 -70.707787,6.851476c-17.594728,1.712869 -61.992641,5.995041 -98.662028,9.634888c-62.321514,6.102096 -142.731067,13.810006 -182.524752,17.663961c-9.537329,0.856434 -29.105298,2.783412 -43.575729,4.282172c-14.470431,1.391706 -42.917982,4.282172 -63.308135,6.316204c-20.390152,2.034032 -49.988761,4.924498 -65.774685,6.423259c-15.785925,1.605815 -37.984881,3.746901 -49.331014,4.924498c-11.346133,1.177597 -48.344394,4.71039 -82.218357,8.029073c-33.873963,3.211629 -76.134198,7.386747 -93.893363,9.099616c-33.051779,3.318684 -48.344394,3.746901 -67.254616,1.926978z" fill="#007f00" id="svg_4"/>
   <path d="m619.588703,9138.275014c-13.154937,-4.496281 -24.336634,-7.386747 -34.53171,-8.992562c-17.759165,-2.890466 -24.172197,-4.924498 -46.371153,-14.345278c-29.598608,-12.632409 -69.885603,-41.644127 -74.654268,-53.527155c-2.466551,-6.102096 -3.617608,-32.330402 -2.302114,-48.388549l1.315494,-14.452332l8.221836,-0.535272c4.768665,-0.321163 11.51057,-1.819923 15.785925,-3.425738c12.826064,-4.924498 29.434172,-21.517916 36.176077,-36.184357c2.137677,-4.603335 2.630987,-4.817444 6.413032,-3.211629c1.973241,0.74938 1.47993,2.997521 -3.124298,15.094658c-5.426412,13.91706 -5.426412,14.345278 -4.768665,32.972728c0.98662,21.624971 1.808804,23.766057 14.634868,36.077303l8.386272,8.136128l0.98662,11.133648l0.822184,11.133648l9.208456,6.95853c12.332754,9.206671 22.692266,14.880549 30.585229,16.700472c4.933101,1.177597 16.608108,1.49876 46.864463,1.49876c38.971501,0 40.944742,-0.107054 59.197217,-3.104575c10.359513,-1.712869 21.541209,-3.425738 24.665507,-3.96101c7.070779,-1.177597 20.061279,-8.029073 30.749665,-16.272255l7.892962,-6.20915l1.315494,6.20915c0.657747,3.425738 1.151057,11.026594 0.822184,17.021635c-0.49331,9.527834 -1.151057,11.454811 -5.919722,17.771016c-8.221836,11.026594 -21.705646,18.413341 -48.344394,26.977686c-25.323254,8.029073 -35.189457,10.17016 -52.290875,10.91954l-12.332754,0.642326l-19.403532,-6.637367z" fill="#007f00" id="svg_5"/>
   <path d="m601.171791,9092.883986c-8.057399,-0.74938 -16.936982,-2.141086 -19.732406,-2.997521c-5.261975,-1.819923 -24.829944,-14.666441 -29.105298,-19.055667c-1.644367,-1.712869 -3.124298,-6.637367 -3.782044,-13.381789c-0.98662,-10.491322 -1.315494,-10.812485 -9.044019,-18.734504c-12.00388,-11.990083 -12.9905,-14.238223 -14.799304,-31.902185c-1.644367,-17.556907 -0.822184,-23.980166 5.590848,-38.218389c2.302114,-5.245661 4.275355,-10.384268 4.275355,-11.347757c0,-2.034032 -7.892962,-6.637367 -9.866203,-5.780933c-0.657747,0.214109 -2.795424,3.532792 -4.933101,7.172639c-12.49719,22.58846 -31.407412,37.2549 -48.179957,37.2549c-8.715146,0 -9.372893,-1.070543 -9.372893,-17.021635c0,-13.91706 0.164437,-14.880549 4.768665,-21.196754c3.124298,-4.282172 9.537329,-9.956051 17.923602,-15.629929c28.611988,-19.805048 28.447551,-19.483885 30.091919,-57.488165c1.315494,-30.938696 2.630987,-36.612574 11.346133,-51.814286c7.892962,-13.488843 45.220096,-45.712191 67.090179,-57.595219l13.154937,-7.279693l15.292614,0c47.193337,0 64.130318,4.496281 99.648648,26.442415l10.03064,6.20915l1.151057,19.805048c0.822184,15.736984 0.49331,21.732025 -1.47993,28.904664c-5.261975,18.734504 -5.755285,16.272255 4.604228,23.33784c11.675007,7.922019 24.172197,21.410862 28.611988,30.831642c4.275355,8.885508 11.839443,45.498082 12.00388,57.595219c0.164437,7.065585 -0.822184,10.812485 -5.590848,20.447373c-7.728526,16.165201 -8.386272,19.162722 -5.426412,27.727067c3.946481,10.705431 3.288734,17.235744 -3.288734,34.150325c-7.399652,19.055667 -12.661627,25.693035 -27.460931,34.471488l-11.346133,6.744422l-24.172197,3.853955c-37.491571,5.887987 -67.090179,7.172639 -98.004281,4.496281z" fill="#007f00" id="svg_6"/>
   <path d="m507.113991,8879.631799c-1.808804,-1.712869 -8.550709,-9.313725 -15.128178,-16.807527c-6.413032,-7.600856 -12.826064,-14.773495 -14.141557,-16.058147c-1.808804,-1.712869 -2.466551,-5.352716 -2.466551,-13.91706c0,-11.133648 0.328873,-12.311246 7.235215,-24.729546c17.759165,-31.79513 39.135938,-68.728868 40.451432,-69.585302c1.644367,-1.070543 10.688386,2.355195 15.950361,5.995041c1.973241,1.391706 10.195076,11.026594 18.252475,21.517916l14.963741,19.162722l-11.181697,9.206671c-36.669387,30.403424 -44.891223,42.607616 -48.01552,70.869954c-0.822184,8.564345 -1.808804,15.951092 -1.973241,16.486364c-0.328873,0.535272 -1.973241,-0.428217 -3.946481,-2.141086z" fill="#007f00" id="svg_7"/>
   <path d="m1799.09325,8862.181946c-6.741905,-0.963489 -13.319374,-2.141086 -14.305994,-2.569303c-2.795424,-1.177597 -2.630987,-11.66892 0.164437,-18.413341c1.315494,-2.890466 10.52395,-20.982645 20.719026,-40.145367c24.336634,-46.140408 91.426813,-175.354961 103.59513,-199.65629c5.261975,-10.598377 14.470431,-31.581022 20.225716,-46.568625c5.919722,-14.987604 14.799304,-35.434977 19.896842,-45.498082c4.933101,-9.956051 15.785925,-32.116293 23.843323,-49.244983c8.221836,-17.021635 21.212336,-43.999322 28.940862,-59.736305c20.061279,-41.322964 22.52783,-55.240024 12.332754,-68.30065c-1.973241,-2.462249 -9.537329,-8.457291 -16.936982,-13.274735c-10.195076,-6.637367 -15.457051,-9.206671 -21.705646,-10.705431c-17.101418,-3.853955 -64.130318,-3.211629 -187.457854,2.676358c-49.824324,2.462249 -180.387075,7.600856 -186.63567,7.386747c-4.604228,-0.107054 72.845464,-5.352716 117.57225,-7.922019c16.279235,-0.963489 43.740166,-2.676358 60.841584,-3.853955c17.265855,-1.070543 50.810945,-3.211629 74.818705,-4.71039c24.00776,-1.391706 57.55285,-3.639847 74.489831,-4.817444c34.0384,-2.355195 52.290875,-2.676358 64.952502,-1.070543c4.604228,0.535272 19.567969,4.389227 33.54509,8.671399c13.812684,4.175118 49.988761,14.880549 80.245116,23.659003c85.671528,24.943654 83.533851,24.08722 98.004281,39.610095c11.675007,12.632409 11.51057,13.91706 -6.577469,47.960331c-7.892962,14.987604 -27.625368,52.563667 -43.740166,83.502362c-48.837704,93.565468 -67.090179,128.14401 -68.734546,130.285096c-0.822184,1.070543 -10.688386,16.37931 -21.705646,34.043271c-11.01726,17.663961 -24.829944,39.610095 -30.749665,48.709711c-5.919722,9.099616 -24.665507,38.539552 -41.602489,65.30313c-16.936982,26.763578 -33.051779,51.707232 -35.847204,55.240024c-12.168317,15.629929 -32.394033,21.303808 -101.950762,28.155284c-37.327134,3.746901 -39.300375,3.853955 -56.237356,1.284652z" fill="#007f00" id="svg_8"/>
   <path d="m731.898979,8856.508068c0,-0.214109 0.822184,-2.034032 1.644367,-4.068064c2.302114,-4.817444 2.137677,-60.057468 0,-67.55127c-0.98662,-3.104575 -7.070779,-13.381789 -13.812684,-22.802568c-6.577469,-9.527834 -18.745785,-27.084741 -26.967621,-39.181878l-14.963741,-21.946134l-0.98662,-13.381789c-0.822184,-13.810006 -0.657747,-14.452332 2.466551,-6.744422c1.808804,4.817444 6.741905,8.992562 37.656007,32.330402c16.114798,12.311246 21.705646,17.342798 26.638748,24.408383c7.070779,9.848997 7.728526,13.060626 3.453171,15.629929c-3.124298,1.819923 -2.959861,7.600856 1.151057,37.683117c0.98662,7.814965 1.151057,20.340319 0.49331,32.116293c-1.151057,17.663961 -1.644367,19.805048 -5.755285,25.371872c-2.302114,3.318684 -5.755285,6.637367 -7.728526,7.279693c-1.808804,0.642326 -3.288734,0.963489 -3.288734,0.856434z" fill="#007f00" id="svg_9"/>
   <path d="m466.333686,8840.128758c-2.630987,-1.391706 -12.49719,-4.496281 -21.705646,-6.851476c-27.625368,-7.172639 -52.948622,-14.880549 -68.734546,-20.982645c-8.057399,-3.211629 -22.52783,-8.029073 -32.065159,-10.705431c-26.145437,-7.493802 -63.965882,-20.982645 -69.885603,-24.8366c-2.795424,-1.819923 -8.879583,-7.922019 -13.483811,-13.381789c-38.642628,-46.140408 -53.935242,-64.874912 -56.401793,-69.264139c-1.644367,-2.783412 -3.782044,-9.741942 -4.768665,-15.415821c-2.302114,-13.16768 -5.590848,-18.62745 -21.047899,-35.542031c-14.799304,-16.37931 -15.950361,-18.520396 -25.816564,-45.498082c-12.00388,-33.400945 -15.292614,-44.962811 -20.719026,-72.796931c-7.728526,-40.252421 -12.661627,-60.59274 -17.430292,-71.405225l-4.275355,-9.956051l8.221836,-6.102096c4.604228,-3.425738 10.688386,-7.600856 13.483811,-9.420779c4.275355,-2.569303 5.097538,-2.783412 4.275355,-1.070543c-2.302114,5.138607 -4.275355,14.131169 -4.275355,20.019156c0,7.172639 4.933101,15.094658 12.826064,20.447373c8.386272,5.887987 69.885603,41.96529 79.094059,46.568625c5.097538,2.462249 13.812684,5.995041 19.403532,7.814965l10.03064,3.318684l44.562349,1.070543l44.726786,1.070543l13.154937,-3.425738c7.235215,-1.926978 13.319374,-3.318684 13.483811,-3.104575c0.328873,0.214109 2.795424,3.853955 5.755285,7.922019c6.741905,9.956051 10.688386,21.089699 16.114798,45.819245c5.261975,24.08722 4.933101,26.014198 -6.577469,44.962811c-8.221836,13.381789 -8.879583,16.37931 -5.097538,19.590939c2.302114,1.926978 2.466551,1.712869 1.47993,-2.248141c-0.822184,-3.532792 0.49331,-6.637367 7.235215,-17.663961c4.439791,-7.386747 8.550709,-15.415821 9.208456,-17.87807c0.98662,-4.817444 -2.137677,-25.693035 -6.577469,-43.142887c-3.124298,-12.097137 -9.208456,-26.33536 -13.977121,-32.330402c-1.808804,-2.355195 -2.959861,-4.496281 -2.630987,-4.71039c2.630987,-1.819923 50.975381,-7.922019 104.252876,-13.274735c110.501472,-11.133648 107.706047,-10.91954 146.841985,-11.454811c20.390152,-0.214109 39.958121,-0.107054 43.575729,0.428217l6.577469,0.963489l-0.49331,6.95853c-0.164437,3.746901 -1.808804,13.810006 -3.617608,22.374351c-1.644367,8.564345 -3.617608,21.839079 -4.110918,29.439935c-1.315494,16.914581 1.644367,84.251743 4.933101,112.942298c3.946481,33.400945 4.110918,31.79513 -8.386272,50.529635c-12.826064,19.269776 -16.608108,23.33784 -28.611988,29.54699c-4.933101,2.569303 -20.061279,10.812485 -33.380653,18.199233c-13.319374,7.493802 -25.323254,13.702952 -26.309874,13.91706c-2.137677,0.321163 -22.198956,-23.980166 -25.652127,-31.04575c-3.288734,-6.530313 -23.843323,-16.914581 -28.283115,-14.024115c-1.808804,1.177597 -4.933101,6.423259 -30.420792,51.064906c-15.457051,27.084741 -17.101418,30.617533 -17.265855,37.469009c0,4.175118 -0.657747,9.848997 -1.151057,12.525354l-1.151057,5.031553l-4.933101,-2.462249z" fill="#007f00" id="svg_10"/>
   <path d="m752.618004,8833.491391c-0.49331,-2.248141 -0.98662,-13.702952 -0.98662,-25.478926c0,-11.775974 -0.822184,-24.729546 -1.644367,-28.904664c-4.110918,-19.162722 -4.110918,-21.196754 0.822184,-24.943654l4.439791,-3.425738l-6.084158,-10.063105c-6.741905,-11.454811 -6.084158,-10.91954 -32.887343,-31.152804c-33.380653,-25.264817 -32.887343,-24.729546 -37.820444,-40.680638c-2.302114,-7.70791 -4.933101,-20.12621 -5.755285,-27.834121c-2.630987,-22.909623 -3.782044,-82.324765 -1.808804,-94.207794c3.617608,-23.016677 8.386272,-47.960331 9.208456,-48.495603c1.151057,-0.74938 42.424672,6.423259 69.885603,12.311246c23.678887,4.924498 24.00776,5.031553 46.04228,5.031553c26.309874,0 60.512711,-3.532792 72.352154,-7.386747c13.483811,-4.496281 61.663768,-24.194274 66.103559,-27.084741c2.466551,-1.605815 8.550709,-7.922019 13.483811,-14.131169l9.208456,-11.240703l0,8.029073c0,4.389227 -0.822184,17.342798 -1.644367,28.690555c-1.644367,19.269776 -1.47993,22.58846 2.630987,48.17444c4.768665,29.975207 4.768665,22.58846 -0.328873,103.521519c-0.49331,8.778453 -0.164437,13.381789 0.822184,12.311246c0.822184,-0.856434 2.302114,-16.272255 3.288734,-34.257379c0.98662,-17.985124 2.302114,-35.863194 2.795424,-39.931258l1.151057,-7.172639l16.608108,-9.420779c9.044019,-5.138607 23.185577,-13.488843 31.242976,-18.62745c12.00388,-7.70791 15.128178,-9.099616 17.594728,-8.350236c3.946481,1.391706 17.430292,1.391706 33.54509,-0.107054c12.332754,-1.177597 13.812684,-1.070543 23.02114,1.284652l9.866203,2.569303l1.973241,17.663961c1.151057,9.741942 3.946481,33.293891 6.248595,52.456612c5.426412,45.176919 7.399652,62.0915 7.399652,63.804369c0,0.74938 -7.728526,4.389227 -17.265855,7.922019c-9.537329,3.639847 -17.265855,7.065585 -17.265855,7.493802c0,0.535272 0.822184,3.318684 1.808804,6.316204c1.47993,4.924498 1.315494,5.673878 -3.124298,11.561866c-7.564089,9.634888 -29.269735,28.79761 -41.273615,36.50552c-11.346133,7.172639 -84.849344,47.639168 -96.359914,52.88483c-4.439791,2.034032 -12.9905,4.068064 -26.309874,6.20915c-16.443671,2.676358 -23.185577,3.211629 -39.629248,3.211629c-13.319374,0 -22.198956,0.535272 -27.132058,1.605815c-3.946481,0.856434 -15.785925,5.780933 -26.145437,10.812485c-24.00776,11.561866 -27.789805,12.846517 -45.384533,14.880549c-21.047899,2.355195 -21.376773,2.355195 -22.692266,-2.355195z" fill="#007f00" id="svg_11"/>
   <path d="m715.948617,8788.100363c-29.598608,-17.663961 -49.166577,-22.374351 -92.57787,-22.374351l-13.977121,0l4.933101,-2.783412c2.795424,-1.391706 10.359513,-5.352716 16.936982,-8.564345c14.799304,-7.279693 21.212336,-12.953572 30.091919,-26.121252c3.617608,-5.566824 8.715146,-13.060626 11.181697,-16.486364l4.439791,-6.316204l16.114798,23.444894c8.879583,12.846517 20.390152,29.439935 25.816564,36.826683c9.866203,13.702952 13.648247,21.946134 12.661627,27.941175l-0.49331,3.425738l-15.128178,-8.992562z" fill="#007f00" id="svg_12"/>
   <path d="m1085.60235,8537.486221c-7.728526,-1.712869 -10.52395,-1.926978 -20.061279,-0.856434c-6.084158,0.535272 -15.950361,1.070543 -21.870083,1.070543c-10.688386,0 -10.852823,0 -15.621488,-4.282172c-7.235215,-6.530313 -21.212336,-25.478926 -24.00776,-32.437456c-3.288734,-8.885508 -5.919722,-25.371872 -5.919722,-39.931258c-0.164437,-9.848997 0.822184,-15.629929 3.946481,-25.371872c6.741905,-20.12621 14.634868,-26.442415 32.887343,-26.442415c7.564089,0 9.537329,0.428217 11.01726,2.141086c1.973241,2.355195 0.822184,6.423259 -1.808804,6.423259c-2.466551,0 -1.644367,14.773495 2.630987,47.746223c2.466551,19.269776 5.097538,33.186836 6.741905,36.398466c3.617608,7.279693 15.292614,23.33784 16.279235,22.695514c0.49331,-0.321163 -1.973241,-4.924498 -5.590848,-10.17016c-3.453171,-5.245661 -7.235215,-11.454811 -8.386272,-13.810006c-1.973241,-4.603335 -9.701766,-62.198555 -9.866203,-73.332203c0,-5.352716 0.657747,-7.386747 2.959861,-8.671399c5.919722,-3.425738 14.634868,-5.45977 24.99438,-5.995041c10.195076,-0.428217 10.852823,-0.321163 15.292614,2.783412l4.604228,3.104575l-2.630987,6.851476c-2.302114,5.780933 -2.630987,10.598377 -1.973241,30.403424c0.49331,12.953572 1.973241,32.009239 3.288734,42.286453c3.946481,29.439935 4.933101,41.751181 3.453171,41.644127c-0.822184,-0.107054 -5.426412,-1.070543 -10.359513,-2.248141z" fill="#007f00" id="svg_13"/>
   <path d="m271.47618,8523.783269c-26.638748,-1.177597 -33.051779,-3.532792 -73.996521,-27.298849c-37.162697,-21.624971 -55.250736,-33.400945 -59.03278,-38.539552c-4.933101,-6.851476 -4.768665,-18.199233 0.657747,-29.332881c3.124298,-6.316204 5.426412,-9.099616 8.715146,-10.598377c7.564089,-3.425738 24.99438,-7.386747 41.438052,-9.313725c16.772545,-2.034032 3.946481,-2.034032 276.253679,1.605815c76.134198,1.070543 82.876104,1.49876 126.287396,8.029073c17.594728,2.569303 18.910222,2.569303 74.489831,2.248141l56.566229,-0.428217l21.047899,-4.924498c11.51057,-2.676358 26.474311,-5.566824 33.216216,-6.530313c11.51057,-1.49876 12.826064,-1.49876 25.816564,0.642326c7.564089,1.177597 18.088038,2.890466 23.51445,3.746901c14.963741,2.462249 14.963741,2.355195 9.372893,9.634888c-6.084158,7.922019 -36.998261,34.792651 -46.53559,40.680638c-6.741905,4.068064 -27.132058,10.812485 -29.105298,9.527834c-0.49331,-0.321163 0.98662,-1.926978 3.288734,-3.532792c2.302114,-1.605815 10.195076,-8.671399 17.430292,-15.736984c7.235215,-7.065585 16.936982,-16.37931 21.541209,-20.661482c4.768665,-4.496281 8.386272,-9.099616 8.386272,-10.598377c0,-3.746901 -5.261975,-8.992562 -11.51057,-11.454811c-12.168317,-4.603335 -24.00776,0 -53.770805,20.661482c-7.892962,5.566824 -21.047899,13.381789 -29.269735,17.342798c-21.870083,10.812485 -23.02114,11.454811 -22.03452,12.097137c2.302114,1.49876 41.109178,-19.162722 58.210597,-31.04575c18.416912,-12.846517 29.763045,-18.62745 36.50495,-18.62745c9.044019,0 18.581349,5.780933 18.581349,11.026594c0,1.391706 -3.946481,6.20915 -8.879583,10.598377c-4.768665,4.389227 -14.799304,13.91706 -22.198956,21.089699c-7.564089,7.279693 -17.430292,15.522875 -22.03452,18.306287c-4.768665,2.890466 -8.057399,5.566824 -7.399652,5.995041c0.657747,0.428217 9.866203,-1.605815 20.390152,-4.389227c17.923602,-4.924498 19.732406,-5.673878 29.269735,-12.525354c22.03452,-16.165201 49.988761,-44.748702 57.881723,-59.308088c2.466551,-4.496281 14.799304,-8.457291 23.350013,-7.600856c6.741905,0.74938 15.128178,5.887987 15.128178,9.313725c0,2.676358 -8.715146,20.340319 -14.634868,29.761098c-2.466551,3.96101 -11.675007,14.987604 -20.390152,24.408383c-16.443671,17.87807 -26.803184,25.693035 -46.206717,34.685597c-4.275355,2.034032 -7.070779,3.853955 -5.919722,4.068064c2.302114,0.535272 6.248595,-1.177597 22.363393,-9.634888c34.0384,-17.771016 38.149318,-21.410862 70.54335,-62.198555l21.376773,-26.977686l6.577469,0.107054c8.879583,0.107054 18.745785,3.318684 20.883463,6.744422c2.302114,3.853955 -6.084158,19.912102 -23.185577,44.320485c-12.9905,18.62745 -17.265855,26.014198 -13.648247,23.766057c1.973241,-1.284652 26.474311,-37.040792 34.367273,-50.208472c3.453171,-5.780933 5.755285,-11.66892 5.919722,-14.987604l0.328873,-5.45977l6.413032,-0.321163c8.715146,-0.535272 14.141557,2.890466 14.141557,8.564345c0,9.206671 -12.826064,37.040792 -23.678887,51.707232c-9.044019,11.990083 -15.621488,17.985124 -23.51445,21.303808c-33.873963,14.024115 -57.05954,22.909623 -64.459192,24.515437c-11.675007,2.569303 -48.673267,6.102096 -63.801445,6.102096c-15.128178,0 -28.940862,-1.926978 -57.388413,-7.922019c-50.975381,-10.812485 -70.378913,-12.846517 -115.270136,-12.097137c-28.447551,0.428217 -42.260235,1.284652 -81.0673,4.924498c-67.747926,6.423259 -125.136339,12.739463 -143.059941,15.629929c-8.550709,1.391706 -19.732406,2.783412 -24.665507,3.211629c-4.933101,0.428217 -14.470431,2.141086 -21.047899,3.853955c-11.51057,2.997521 -12.826064,3.104575 -38.642628,2.890466c-14.634868,0 -34.367273,-0.428217 -43.904603,-0.856434z" fill="#007f00" id="svg_14"/>
   <path d="m1090.042141,8413.303221c-6.577469,-3.318684 -19.732406,-3.746901 -30.585229,-0.963489c-10.688386,2.783412 -10.195076,2.783412 -10.195076,-0.428217c0,-1.49876 -1.315494,-3.104575 -3.124298,-3.746901c-5.097538,-1.712869 -17.430292,-1.284652 -26.638748,1.070543c-7.892962,2.034032 -9.701766,2.141086 -25.158817,1.070543c-16.279235,-1.177597 -20.719026,-2.248141 -20.719026,-4.817444c0,-3.104575 -6.906342,-5.352716 -17.101418,-5.566824c-5.426412,0 -14.141557,-1.070543 -19.074659,-2.355195c-15.457051,-3.746901 -19.239095,-2.997521 -25.487691,5.245661c-1.644367,2.034032 -3.124298,3.853955 -3.288734,4.068064c-0.328873,0.214109 -3.124298,0 -6.248595,-0.321163c-4.933101,-0.642326 -5.919722,-1.284652 -6.741905,-4.282172c-1.315494,-4.175118 -8.386272,-8.564345 -15.621488,-9.634888c-6.906342,-0.963489 -17.430292,1.177597 -24.00776,4.924498l-5.755285,3.318684l-40.780305,-3.425738c-22.363393,-1.819923 -68.57011,-5.673878 -102.608509,-8.457291c-34.202836,-2.783412 -62.485951,-5.245661 -62.814825,-5.566824c-0.328873,-0.214109 -1.151057,-1.712869 -1.808804,-3.211629c-0.98662,-2.676358 -0.49331,-2.890466 20.883463,-8.243182c12.00388,-2.997521 26.309874,-6.530313 31.736286,-7.814965c5.426412,-1.284652 10.52395,-2.676358 11.51057,-3.211629c0.822184,-0.535272 1.808804,-4.71039 2.466551,-9.313725l0.822184,-8.243182l11.839443,-0.321163c6.577469,-0.214109 26.309874,0.642326 43.575729,1.819923c33.54509,2.355195 100.799705,6.530313 145.855365,9.206671c14.634868,0.856434 36.833824,2.355195 49.331014,3.104575c12.332754,0.856434 27.954241,1.926978 34.696147,2.248141c6.741905,0.321163 22.363393,1.284652 34.53171,2.141086c12.168317,0.856434 27.460931,1.712869 33.709526,2.141086c75.476452,4.068064 288.093122,21.517916 292.69735,24.08722c1.644367,0.856434 2.466551,3.425738 2.466551,7.600856c0,5.780933 -0.328873,6.423259 -5.261975,8.778453c-2.959861,1.49876 -9.372893,3.425738 -14.305994,4.496281c-5.261975,1.070543 -9.044019,2.569303 -9.537329,3.746901c-0.49331,1.284652 -1.973241,1.712869 -5.097538,1.391706c-23.51445,-2.462249 -63.801445,-7.922019 -94.879984,-12.953572c-34.860583,-5.566824 -39.300375,-5.995041 -56.730666,-5.995041c-14.141557,0 -21.212336,0.428217 -27.954241,1.926978c-14.141557,3.104575 -30.256355,8.671399 -40.122558,14.024115c-5.097538,2.676358 -9.372893,4.817444 -9.537329,4.71039c-0.328873,0 -2.466551,-1.070543 -4.933101,-2.248141z" fill="#007f00" id="svg_15"/>
   <path d="m1711.119608,8386.325534c-41.438052,-12.525354 -184.004683,-55.347079 -192.884265,-57.916382c-13.977121,-4.068064 -15.457051,-4.817444 -10.03064,-4.817444c4.604228,0 79.916243,-2.676358 119.874364,-4.282172c14.963741,-0.535272 47.193337,-1.712869 71.52997,-2.676358c24.50107,-0.856434 58.868343,-2.355195 76.463072,-3.211629c57.388413,-2.890466 108.692668,-4.817444 143.882124,-5.45977c52.619748,-0.963489 61.992641,0.963489 81.56061,16.486364c5.755285,4.603335 11.01726,8.778453 11.839443,9.527834c4.439791,3.853955 3.946481,30.724587 -0.657747,32.544511c-0.98662,0.321163 -13.977121,1.49876 -29.105298,2.462249c-15.128178,1.070543 -38.149318,2.783412 -51.304255,3.96101c-13.154937,1.070543 -38.313754,2.997521 -55.908483,4.175118c-17.594728,1.284652 -52.784185,3.96101 -78.107439,5.995041c-54.921862,4.389227 -80.08068,5.352716 -87.151458,3.211629z" fill="#007f00" id="svg_16"/>
  </g>
 </g>
</svg>